# xmcd
#
# Track frame offsets:
#	150
#	23148
#	83021
#	143694
#	177600
#	217779
#	270551
#	321605
#
# Disc length: 4793 seconds
#
# Revision: 0
# Processed by: cddbd v1.4PL0 Copyright (c) Steve Scherf et al.
# Submitted via: dBpowerAMP V4.0
#
DISCID=6c12b708
DTITLE=Big E - 1/18/2003
DYEAR=1900
DGENRE=
TTITLE0=Willie The Pimp
TTITLE1=Hertz Me
TTITLE2=Express Yourself
TTITLE3=Raindrops
TTITLE4=B'Lite
TTITLE5=Slumber
TTITLE6=Whipping Post
TTITLE7=It's Your Thing
EXTD=
EXTT0=
EXTT1=
EXTT2=
EXTT3=
EXTT4=
EXTT5=
EXTT6=
EXTT7=
PLAYORDER=
